<svg width="35" height="40" viewBox="0 0 35 40" fill="none" xmlns="http://www.w3.org/2000/svg">
<path d="M2 10H33M13.625 18V30M21.375 18V30M3.9375 10L5.875 34C5.875 35.0609 6.28326 36.0783 7.00996 36.8284C7.73666 37.5786 8.72229 38 9.75 38H25.25C26.2777 38 27.2633 37.5786 27.99 36.8284C28.7167 36.0783 29.125 35.0609 29.125 34L31.0625 10M11.6875 10V4C11.6875 3.46957 11.8916 2.96086 12.255 2.58579C12.6183 2.21071 13.1111 2 13.625 2H21.375C21.8889 2 22.3817 2.21071 22.745 2.58579C23.1084 2.96086 23.3125 3.46957 23.3125 4V10" stroke="#364042" stroke-width="3" stroke-linecap="round" stroke-linejoin="round"/>
</svg>
